HIERARCHY
ROOT Hips
{
	OFFSET 0.000000 0.000000 0.000000
	CHANNELS 6 Xposition Yposition Zposition Zrotation Yrotation Xrotation 
	JOINT LHipJoint
	{
		OFFSET 0.000000 0.000000 0.000000
		CHANNELS 3 Zrotation Yrotation Xrotation
		JOINT LeftUpLeg
		{
			OFFSET 1.363060 -1.794630 0.839290
			CHANNELS 3 Zrotation Yrotation Xrotation
			JOINT LeftLeg
			{
				OFFSET 2.448110 -6.726130 0.000000
				CHANNELS 3 Zrotation Yrotation Xrotation
				JOINT LeftFoot
				{
					OFFSET 2.562200 -7.039590 0.000000
					CHANNELS 3 Zrotation Yrotation Xrotation
					JOINT LeftToeBase
					{
						OFFSET 0.157640 -0.433110 2.322550
						CHANNELS 3 Zrotation Yrotation Xrotation
						End Site
						{
							OFFSET 0.000000 0.000000 0.000000
						}
					}
				}
			}
		}
	}
	JOINT RHipJoint
	{
		OFFSET 0.000000 0.000000 0.000000
		CHANNELS 3 Zrotation Yrotation Xrotation
		JOINT RightUpLeg
		{
			OFFSET -1.305520 -1.794630 0.839290
			CHANNELS 3 Zrotation Yrotation Xrotation
			JOINT RightLeg
			{
				OFFSET -2.542530 -6.985550 0.000000
				CHANNELS 3 Zrotation Yrotation Xrotation
				JOINT RightFoot
				{
					OFFSET -2.568260 -7.056230 0.000000
					CHANNELS 3 Zrotation Yrotation Xrotation
					JOINT RightToeBase
					{
						OFFSET -0.164730 -0.452590 2.363150
						CHANNELS 3 Zrotation Yrotation Xrotation
						End Site
						{
							OFFSET 0.000000 0.000000 0.000000
						}
					}
				}
			}
		}
	}
	JOINT LowerBack
	{
		OFFSET 0.000000 0.000000 0.000000
		CHANNELS 3 Zrotation Yrotation Xrotation
		JOINT Spine
		{
			OFFSET 0.028270 2.035590 -0.193380
			CHANNELS 3 Zrotation Yrotation Xrotation
			JOINT Spine1
			{
				OFFSET 0.056720 2.048850 -0.042750
				CHANNELS 3 Zrotation Yrotation Xrotation
				JOINT Neck
				{
					OFFSET 0.000000 0.000000 0.000000
					CHANNELS 3 Zrotation Yrotation Xrotation
					JOINT Neck1
					{
						OFFSET -0.054170 1.746240 0.172020
						CHANNELS 3 Zrotation Yrotation Xrotation
						JOINT Head
						{
							OFFSET 0.104070 1.761360 -0.123970
							CHANNELS 3 Zrotation Yrotation Xrotation
							End Site
							{
								OFFSET 0.000000 0.000000 0.000000
							}
						}
					}
				}
				JOINT LeftShoulder
				{
					OFFSET 0.000000 0.000000 0.000000
					CHANNELS 3 Zrotation Yrotation Xrotation
					JOINT LeftArm
					{
						OFFSET 3.362410 1.200890 -0.311210
						CHANNELS 3 Zrotation Yrotation Xrotation
						JOINT LeftForeArm
						{
							OFFSET 4.983000 -0.000000 -0.000000
							CHANNELS 3 Zrotation Yrotation Xrotation
							JOINT LeftHand
							{
								OFFSET 3.483560 -0.000000 -0.000000
								CHANNELS 3 Zrotation Yrotation Xrotation
								JOINT LeftFingerBase
								{
									OFFSET 0.000000 0.000000 0.000000
									CHANNELS 3 Zrotation Yrotation Xrotation
									JOINT LeftHandIndex1
									{
										OFFSET 0.715260 -0.000000 -0.000000
										CHANNELS 3 Zrotation Yrotation Xrotation
										End Site
										{
											OFFSET 0.000000 0.000000 0.000000
										}
									}
								}
								JOINT LThumb
								{
									OFFSET 0.000000 0.000000 0.000000
									CHANNELS 3 Zrotation Yrotation Xrotation
									End Site
									{
										OFFSET 0.000000 0.000000 0.000000
									}
								}
							}
						}
					}
				}
				JOINT RightShoulder
				{
					OFFSET 0.000000 0.000000 0.000000
					CHANNELS 3 Zrotation Yrotation Xrotation
					JOINT RightArm
					{
						OFFSET -3.136600 1.374050 -0.404650
						CHANNELS 3 Zrotation Yrotation Xrotation
						JOINT RightForeArm
						{
							OFFSET -5.241900 -0.000000 -0.000000
							CHANNELS 3 Zrotation Yrotation Xrotation
							JOINT RightHand
							{
								OFFSET -3.444170 -0.000000 -0.000000
								CHANNELS 3 Zrotation Yrotation Xrotation
								JOINT RightFingerBase
								{
									OFFSET 0.000000 0.000000 0.000000
									CHANNELS 3 Zrotation Yrotation Xrotation
									JOINT RightHandIndex1
									{
										OFFSET -0.622530 -0.000000 -0.000000
										CHANNELS 3 Zrotation Yrotation Xrotation
										End Site
										{
											OFFSET 0.000000 0.000000 0.000000
										}
									}
								}
								JOINT RThumb
								{
									OFFSET 0.000000 0.000000 0.000000
									CHANNELS 3 Zrotation Yrotation Xrotation
									End Site
									{
										OFFSET 0.000000 0.000000 0.000000
									}
								}
							}
						}
					}
				}
			}
		}
	}
}
MOTION
Frames: 12
Frame Time: 0.008333
19.631699 17.832982 0.119034 28.576250 -86.889988 -26.755197 -5.342679 -4.218294 -0.844789 -3.926966 0.930713 -8.898526 1.020940 11.091199 26.641609 -9.969621 24.690976 -5.515738 2.118800 -9.109200 -26.137700 4.232579 3.864261 -1.232004 4.048929 3.400412 -7.788460 -1.309214 -12.027615 30.575414 6.080767 -19.996543 -13.460742 -0.251300 3.225400 -8.906900 -1.042408 -1.545401 -6.797733 1.005978 -2.075271 0.429913 1.288695 -1.273492 9.368075 -9.303749 1.510080 -5.595604 2.997240 1.336543 27.604453 1.971700 0.183300 8.164500 -7.600179 -7.712506 1.403807 -77.757981 -2.105474 20.472318 37.978326 -44.479053 -19.828997 0.737147 0.884631 10.213499 42.042648 -27.355395 -23.182900 -7.125000 0.000000 0.000000 6.083800 -6.285600 -6.749600 10.639139 7.360232 1.389027 64.659810 -1.911509 40.522646 -40.225037 46.779557 -19.877456 1.434755 1.677211 -18.221838 -18.193939 -37.909449 12.838400 7.125000 0.000000 0.000000 21.650700 -69.255200 -12.791400 
19.633447 17.835056 0.121218 30.821410 -86.852887 -28.978811 -5.354734 -4.224683 -0.839676 -4.051244 0.881338 -8.865001 0.999600 11.084163 26.606936 -9.904427 24.552136 -5.554113 2.022900 -8.913700 -25.525700 4.215864 3.860696 -1.240665 3.900135 3.297174 -7.844979 -1.329013 -12.023442 30.591206 6.078305 -19.965552 -13.275812 -0.264400 3.307700 -9.136600 -1.152276 -1.527651 -6.874348 0.985387 -2.034819 0.463158 1.314250 -1.264298 9.485176 -9.213389 1.417329 -6.045435 2.822640 1.311025 27.921331 1.904400 0.157800 8.370800 -7.601754 -7.697503 1.401582 -77.771863 -2.319802 20.501876 37.811057 -44.376320 -19.702970 0.737659 0.890232 10.185305 42.097179 -27.402127 -23.259400 -7.125000 0.000000 0.000000 6.099900 -6.370500 -6.775600 10.641129 7.378704 1.397139 64.628292 -1.732753 40.274825 -40.151778 46.613146 -19.654430 1.711154 1.064895 -17.099045 -28.375753 -30.218303 16.386800 7.125000 0.000000 0.000000 1.098200 -63.964800 -0.504800 
19.634102 17.834510 0.121327 30.529748 -86.874072 -28.698185 -5.350100 -4.225208 -0.840573 -4.020098 0.896587 -8.858304 1.000516 11.083358 26.619638 -9.846944 24.428675 -5.534905 1.982100 -8.828800 -25.261100 4.215296 3.859739 -1.242643 3.925376 3.288178 -7.833742 -1.329465 -12.023100 30.577043 6.102661 -20.025997 -13.181552 -0.276300 3.381100 -9.341600 -1.186344 -1.528597 -6.926793 1.012456 -2.036052 0.498966 1.387978 -1.270422 9.580450 -9.351473 1.418964 -5.881976 2.917101 1.286334 27.699998 1.953300 0.149600 8.252400 -7.599856 -7.704223 1.405111 -77.821674 -2.374640 20.515458 37.854557 -44.398605 -19.728975 0.737429 0.891028 10.164807 42.065999 -27.355907 -23.205900 -7.125000 0.000000 0.000000 6.094600 -6.305000 -6.763500 10.644534 7.365147 1.403348 64.568552 -1.603929 40.016467 -40.078213 46.528958 -19.599593 1.793344 0.466208 -16.135270 -36.237931 -22.507889 16.293900 7.125000 0.000000 0.000000 -10.412500 -56.730700 3.016500 
19.634102 17.833855 0.120453 29.285117 -86.916535 -27.483129 -5.342786 -4.219073 -0.841652 -3.942571 0.937823 -8.838988 1.009049 11.080695 26.616996 -9.876800 24.494342 -5.492735 2.010300 -8.887500 -25.444100 4.222046 3.862766 -1.240277 4.017257 3.329661 -7.793927 -1.317981 -12.027440 30.574765 6.077276 -19.973252 -13.300191 -0.261000 3.286500 -9.077500 -1.152508 -1.522103 -6.964579 1.041856 -2.034923 0.521445 1.424623 -1.272878 9.639591 -9.328644 1.415360 -5.803198 2.863264 1.283285 27.646015 1.927500 0.147500 8.215500 -7.596299 -7.703220 1.406472 -77.859020 -2.444882 20.501435 37.811731 -44.370747 -19.693875 0.740131 0.891810 10.173393 41.981941 -27.369467 -23.152100 -7.125000 0.000000 0.000000 6.043200 -6.287500 -6.704200 10.648445 7.361107 1.409829 64.531374 -1.556179 39.722464 -40.028248 46.519170 -19.673920 1.763978 0.026999 -15.266542 -41.932299 -16.047703 13.899900 7.125000 0.000000 0.000000 -16.093900 -49.655100 1.890800 
19.634976 17.833855 0.120126 29.040038 -86.927489 -27.245685 -5.340106 -4.218614 -0.842925 -3.925023 0.948484 -8.839209 1.011830 11.082154 26.625014 -9.871717 24.483896 -5.483921 2.004200 -8.874900 -25.404600 4.223184 3.863139 -1.239915 4.034186 3.326157 -7.788660 -1.315307 -12.025543 30.565089 6.074653 -19.966504 -13.293720 -0.254900 3.248600 -8.971600 -1.155307 -1.517689 -6.984716 1.050592 -2.029813 0.534145 1.443823 -1.272385 9.674263 -9.350008 1.399360 -5.785595 2.858380 1.263698 27.612820 1.927200 0.137100 8.199100 -7.595368 -7.703450 1.406946 -77.877263 -2.489054 20.505821 37.789072 -44.356426 -19.675334 0.741095 0.892508 10.159928 41.957770 -27.387226 -23.146000 -7.125000 0.000000 0.000000 6.024400 -6.299100 -6.684300 10.649455 7.358411 1.413957 64.517129 -1.482633 39.429995 -39.951221 46.499280 -19.721175 1.726230 -0.175452 -14.395252 -44.816972 -12.836904 11.992100 7.125000 0.000000 0.000000 -18.266300 -45.803800 0.374900 
19.635958 17.833855 0.119689 28.893396 -86.929726 -27.102943 -5.338851 -4.218737 -0.844334 -3.916338 0.958132 -8.845859 1.013667 11.082847 26.628191 -9.876265 24.493669 -5.479066 2.005200 -8.877000 -25.411200 4.223731 3.863474 -1.239403 4.041710 3.317372 -7.789417 -1.313391 -12.023617 30.558310 6.068841 -19.950879 -13.293717 -0.246000 3.191700 -8.812900 -1.164200 -1.515951 -6.995700 1.055857 -2.027352 0.542195 1.460911 -1.272448 9.695189 -9.385213 1.386828 -5.752007 2.870740 1.243138 27.566190 1.934800 0.126900 8.174900 -7.595589 -7.705658 1.407562 -77.890701 -2.517924 20.510300 37.777110 -44.348823 -19.665141 0.741688 0.892932 10.140718 41.942194 -27.406141 -23.146700 -7.125000 0.000000 0.000000 6.010400 -6.314900 -6.670000 10.651966 7.356293 1.416527 64.504413 -1.374495 38.919873 -39.754766 46.386152 -19.644755 1.698187 -0.276154 -12.565113 -45.629513 -12.001727 11.419000 7.125000 0.000000 0.000000 -18.813800 -44.761000 -0.115200 
19.637269 17.833964 0.119361 29.062998 -86.921316 -27.270319 -5.340314 -4.220033 -0.845525 -3.928147 0.960721 -8.855263 1.012824 11.082647 26.623832 -9.887369 24.517544 -5.483278 2.006200 -8.879000 -25.417500 4.222061 3.863467 -1.239610 4.026706 3.295269 -7.801236 -1.314349 -12.021781 30.557295 6.059197 -19.922621 -13.285192 -0.237100 3.133500 -8.650700 -1.191516 -1.515806 -7.009148 1.057056 -2.024143 0.549420 1.481251 -1.272897 9.717427 -9.425020 1.371112 -5.746157 2.885815 1.221707 27.538807 1.944700 0.115600 8.163300 -7.596954 -7.707966 1.408123 -77.900555 -2.552226 20.516452 37.760611 -44.338315 -19.651980 0.741876 0.893677 10.117075 41.939129 -27.422727 -23.155700 -7.125000 0.000000 0.000000 6.003900 -6.333600 -6.664500 10.656035 7.355855 1.418532 64.487618 -1.235518 38.250789 -39.475732 46.201712 -19.474144 1.679904 -0.322995 -10.060220 -45.016113 -12.704245 11.917200 7.125000 0.000000 0.000000 -18.399400 -45.641300 0.301500 
19.638689 17.834074 0.119143 29.458239 -86.906502 -27.658489 -5.343442 -4.222333 -0.846806 -3.953771 0.953270 -8.864693 1.010389 11.082613 26.617685 -9.898518 24.541181 -5.496245 2.001600 -8.869400 -25.387600 4.218960 3.863041 -1.240498 3.996711 3.266732 -7.818874 -1.317124 -12.019589 30.558371 6.050579 -19.895305 -13.261823 -0.231400 3.096000 -8.546100 -1.234315 -1.516694 -7.029339 1.056484 -2.020260 0.558589 1.507667 -1.273854 9.748038 -9.477053 1.353526 -5.762354 2.909679 1.199887 27.522468 1.960000 0.103800 8.159700 -7.599499 -7.710620 1.408880 -77.907655 -2.595538 20.523591 37.740697 -44.325311 -19.636246 0.741560 0.894839 10.093005 41.947793 -27.427738 -23.166200 -7.125000 0.000000 0.000000 6.007200 -6.344300 -6.669100 10.662069 7.356239 1.420469 64.462066 -1.064063 37.438219 -39.125518 45.951507 -19.219243 1.665656 -0.335600 -6.980552 -43.110071 -14.389138 12.828700 7.125000 0.000000 0.000000 -16.894200 -47.631200 1.127300 
19.639890 17.834183 0.118924 29.925902 -86.892052 -28.120032 -5.347101 -4.224639 -0.847897 -3.982938 0.938574 -8.866844 1.006799 11.082384 26.609940 -9.908338 24.561898 -5.514852 1.994700 -8.855000 -25.342700 4.215428 3.862378 -1.241839 3.964644 3.244299 -7.831944 -1.320370 -12.018316 30.562060 6.041853 -19.868158 -13.241258 -0.228300 3.075400 -8.488800 -1.286687 -1.517290 -7.056818 1.057958 -2.015050 0.572786 1.544089 -1.275546 9.793102 -9.540441 1.335512 -5.797167 2.939045 1.180426 27.514026 1.979700 0.092600 8.161900 -7.602580 -7.713136 1.409916 -77.915801 -2.653443 20.532160 37.717394 -44.309410 -19.617488 0.740803 0.896548 10.073460 41.963942 -27.413154 -23.170200 -7.125000 0.000000 0.000000 6.019800 -6.336200 -6.682600 10.669858 7.356536 1.423343 64.422954 -0.877015 36.581096 -38.759219 45.681093 -18.943065 1.640067 -0.355457 -3.801696 -40.891923 -15.771501 13.164500 7.125000 0.000000 0.000000 -14.855200 -49.092900 1.530100 
19.640873 17.834074 0.118815 30.351768 -86.884309 -28.544047 -5.350392 -4.226134 -0.848460 -4.007071 0.919957 -8.857704 1.002811 11.081401 26.600816 -9.916483 24.578567 -5.537521 1.990400 -8.846100 -25.315000 4.212180 3.861830 -1.243549 3.940017 3.233503 -7.836696 -1.323222 -12.018537 30.568768 6.031695 -19.838673 -13.231075 -0.227000 3.066800 -8.464900 -1.336337 -1.514903 -7.090738 1.061152 -2.006212 0.592005 1.582830 -1.276001 9.850680 -9.608465 1.317434 -5.849873 2.971989 1.162787 27.520233 2.002000 0.081900 8.172400 -7.605842 -7.715152 1.411300 -77.922219 -2.723314 20.541837 37.687875 -44.289079 -19.593615 0.739999 0.898576 10.065628 41.979877 -27.382538 -23.164000 -7.125000 0.000000 0.000000 6.036600 -6.310400 -6.699000 10.677786 7.356443 1.426596 64.380132 -0.707738 35.833414 -38.455310 45.447224 -18.705658 1.607775 -0.376207 -1.108191 -38.818381 -16.647830 13.023400 7.125000 0.000000 0.000000 -12.781900 -49.880800 1.560500 
19.641637 17.833855 0.118488 30.669844 -86.880641 -28.866511 -5.352806 -4.226403 -0.847983 -4.024066 0.902617 -8.839313 0.998857 11.079716 26.590859 -9.919834 24.585396 -5.554536 1.988700 -8.842600 -25.304100 4.209517 3.861436 -1.244982 3.924657 3.228588 -7.834363 -1.325656 -12.020304 30.577943 6.021174 -19.810173 -13.229960 -0.226700 3.064600 -8.458700 -1.369520 -1.512475 -7.114480 1.061776 -1.998785 0.608560 1.606285 -1.275720 9.897165 -9.669310 1.302877 -5.915518 3.002452 1.151614 27.545282 2.023500 0.073900 8.192500 -7.608932 -7.716426 1.412382 -77.920451 -2.779592 20.547313 37.658749 -44.269313 -19.570705 0.739105 0.900362 10.066835 41.994721 -27.344942 -23.152200 -7.125000 0.000000 0.000000 6.054600 -6.275600 -6.716000 10.683084 7.356593 1.429044 64.352639 -0.586256 35.312687 -38.253622 45.286402 -18.542400 1.578992 -0.391891 0.735579 -37.299665 -17.084212 12.726400 7.125000 0.000000 0.000000 -11.205900 -50.187300 1.448700 
19.642074 17.833637 0.118160 30.853636 -86.876886 -29.059639 -5.354214 -4.225546 -0.846389 -4.034084 0.891981 -8.819134 0.995731 11.077506 26.580736 -9.918957 24.583746 -5.559578 1.989600 -8.844300 -25.309500 4.207672 3.861138 -1.245517 3.916820 3.225116 -7.828340 -1.327776 -12.022864 30.588667 6.012223 -19.787165 -13.238194 -0.225400 3.056300 -8.435600 -1.381055 -1.513450 -7.112426 1.057147 -1.997844 0.614098 1.605053 -1.276001 9.908242 -9.718267 1.295656 -5.981561 3.031347 1.148765 27.584886 2.043900 0.069700 8.219000 -7.611474 -7.717364 1.412517 -77.908331 -2.799463 20.543395 37.635846 -44.254472 -19.554246 0.738118 0.901392 10.068790 42.012012 -27.319732 -23.149700 -7.125000 0.000000 0.000000 6.071100 -6.254900 -6.732500 10.684120 7.357442 1.429672 64.351478 -0.525605 35.034894 -38.148108 45.200754 -18.453776 1.560836 -0.401003 1.740613 -36.443703 -17.268644 12.507000 7.125000 0.000000 0.000000 -10.306300 -50.281300 1.354100 
